<svg preserveAspectRatio="none" width="100%" height="100%" overflow="visible" style="display: block;" viewBox="0 0 23.989 23.989" fill="none" xmlns="http://www.w3.org/2000/svg">
<g id="Icon">
<path id="Vector" d="M11.9945 19.9908V21.9908" stroke="var(--stroke-0, white)" stroke-width="1.99908" stroke-linecap="round" stroke-linejoin="round"/>
<path id="Vector_2" d="M11.9945 1.99908V3.99908" stroke="var(--stroke-0, white)" stroke-width="1.99908" stroke-linecap="round" stroke-linejoin="round"/>
<path id="Vector_3" d="M16.9922 19.9908V21.9908" stroke="var(--stroke-0, white)" stroke-width="1.99908" stroke-linecap="round" stroke-linejoin="round"/>
<path id="Vector_4" d="M16.9922 1.99908V3.99908" stroke="var(--stroke-0, white)" stroke-width="1.99908" stroke-linecap="round" stroke-linejoin="round"/>
<path id="Vector_5" d="M1.99908 11.9945H3.99908" stroke="var(--stroke-0, white)" stroke-width="1.99908" stroke-linecap="round" stroke-linejoin="round"/>
<path id="Vector_6" d="M1.99908 16.9922H3.99908" stroke="var(--stroke-0, white)" stroke-width="1.99908" stroke-linecap="round" stroke-linejoin="round"/>
<path id="Vector_7" d="M1.99908 6.99678H3.99908" stroke="var(--stroke-0, white)" stroke-width="1.99908" stroke-linecap="round" stroke-linejoin="round"/>
<path id="Vector_8" d="M19.9908 11.9945H21.9908" stroke="var(--stroke-0, white)" stroke-width="1.99908" stroke-linecap="round" stroke-linejoin="round"/>
<path id="Vector_9" d="M19.9908 16.9922H21.9908" stroke="var(--stroke-0, white)" stroke-width="1.99908" stroke-linecap="round" stroke-linejoin="round"/>
<path id="Vector_10" d="M19.9908 6.99678H21.9908" stroke="var(--stroke-0, white)" stroke-width="1.99908" stroke-linecap="round" stroke-linejoin="round"/>
<path id="Vector_11" d="M6.99678 19.9908V21.9908" stroke="var(--stroke-0, white)" stroke-width="1.99908" stroke-linecap="round" stroke-linejoin="round"/>
<path id="Vector_12" d="M6.99678 1.99908V3.99908" stroke="var(--stroke-0, white)" stroke-width="1.99908" stroke-linecap="round" stroke-linejoin="round"/>
<path id="Vector_13" d="M17.9917 3.99816H5.99724C4.89318 3.99816 3.99816 4.89318 3.99816 5.99724V17.9917C3.99816 19.0958 4.89318 19.9908 5.99724 19.9908H17.9917C19.0958 19.9908 19.9908 19.0958 19.9908 17.9917V5.99724C19.9908 4.89318 19.0958 3.99816 17.9917 3.99816Z" stroke="var(--stroke-0, white)" stroke-width="1.99908" stroke-linecap="round" stroke-linejoin="round"/>
<path id="Vector_14" d="M14.9931 7.99632H8.99586C8.44383 7.99632 7.99632 8.44383 7.99632 8.99586V14.9931C7.99632 15.5451 8.44383 15.9926 8.99586 15.9926H14.9931C15.5451 15.9926 15.9926 15.5451 15.9926 14.9931V8.99586C15.9926 8.44383 15.5451 7.99632 14.9931 7.99632Z" stroke="var(--stroke-0, white)" stroke-width="1.99908" stroke-linecap="round" stroke-linejoin="round"/>
</g>
</svg>
