<svg preserveAspectRatio="none" width="100%" height="100%" overflow="visible" style="display: block;" viewBox="0 0 31.9853 31.9853" fill="none" xmlns="http://www.w3.org/2000/svg">
<g id="Icon">
<path id="Vector" d="M20.6265 17.1788L22.6456 28.5416C22.6682 28.6754 22.6494 28.8129 22.5918 28.9357C22.5341 29.0586 22.4403 29.1609 22.323 29.229C22.2056 29.2971 22.0702 29.3277 21.935 29.3168C21.7997 29.3059 21.671 29.254 21.5661 29.1679L16.7949 25.5869C16.5646 25.4148 16.2848 25.3219 15.9973 25.3219C15.7098 25.3219 15.43 25.4148 15.1997 25.5869L10.4205 29.1666C10.3157 29.2525 10.1871 29.3043 10.052 29.3153C9.91694 29.3262 9.78173 29.2957 9.66443 29.2277C9.54714 29.1598 9.45335 29.0578 9.39557 28.9352C9.33778 28.8126 9.31876 28.6753 9.34103 28.5416L11.3588 17.1788" stroke="var(--stroke-0, white)" stroke-width="2.66544" stroke-linecap="round" stroke-linejoin="round"/>
<path id="Vector_2" d="M15.9926 18.6581C20.4089 18.6581 23.989 15.078 23.989 10.6618C23.989 6.24552 20.4089 2.66544 15.9926 2.66544C11.5764 2.66544 7.99632 6.24552 7.99632 10.6618C7.99632 15.078 11.5764 18.6581 15.9926 18.6581Z" stroke="var(--stroke-0, white)" stroke-width="2.66544" stroke-linecap="round" stroke-linejoin="round"/>
</g>
</svg>
