<svg preserveAspectRatio="none" width="100%" height="100%" overflow="visible" style="display: block;" viewBox="0 0 31.9853 31.9853" fill="none" xmlns="http://www.w3.org/2000/svg">
<g id="Icon">
<path id="Vector" d="M2.66544 12.6609C2.66547 11.1778 3.11536 9.72969 3.95569 8.50769C4.79603 7.2857 5.98727 6.34735 7.37209 5.81658C8.75691 5.28581 10.2702 5.18759 11.712 5.5349C13.1538 5.88221 14.4563 6.6587 15.4476 7.76182C15.5174 7.83647 15.6018 7.89598 15.6956 7.93667C15.7893 7.97736 15.8904 7.99835 15.9926 7.99835C16.0949 7.99835 16.196 7.97736 16.2897 7.93667C16.3835 7.89598 16.4679 7.83647 16.5377 7.76182C17.5259 6.65153 18.8287 5.86851 20.2729 5.51699C21.717 5.16546 23.234 5.2621 24.6218 5.79403C26.0097 6.32597 27.2027 7.26798 28.0419 8.49468C28.8812 9.72139 29.3269 11.1746 29.3199 12.6609C29.3199 15.7128 27.3208 17.9918 25.3217 19.9909L18.0024 27.0716C17.7541 27.3568 17.4479 27.5859 17.1042 27.7437C16.7605 27.9015 16.3872 27.9843 16.009 27.9867C15.6309 27.9891 15.2565 27.911 14.9109 27.7576C14.5652 27.6042 14.2561 27.379 14.0042 27.0969L6.6636 19.9909C4.66452 17.9918 2.66544 15.7262 2.66544 12.6609Z" stroke="var(--stroke-0, white)" stroke-width="2.66544" stroke-linecap="round" stroke-linejoin="round"/>
</g>
</svg>
