<svg preserveAspectRatio="none" width="100%" height="100%" overflow="visible" style="display: block;" viewBox="0 0 15.9926 15.9926" fill="none" xmlns="http://www.w3.org/2000/svg">
<g id="Icon" clip-path="url(#clip0_674_237)">
<path id="Vector" d="M14.5273 6.6636C14.8316 8.15711 14.6147 9.70981 13.9128 11.0628C13.2109 12.4157 12.0664 13.4872 10.6701 14.0984C9.27381 14.7096 7.71019 14.8237 6.23998 14.4216C4.76977 14.0195 3.48185 13.1256 2.59098 11.8888C1.70011 10.6521 1.26015 9.14728 1.34448 7.62541C1.4288 6.10354 2.0323 4.65658 3.05435 3.52582C4.07639 2.39506 5.4552 1.64886 6.96083 1.41165C8.46646 1.17444 10.0079 1.46056 11.3281 2.2223" stroke="var(--stroke-0, #9810FA)" stroke-width="1.33272" stroke-linecap="round" stroke-linejoin="round"/>
<path id="Vector_2" d="M5.99724 7.32996L7.99632 9.32904L14.6599 2.66544" stroke="var(--stroke-0, #9810FA)" stroke-width="1.33272" stroke-linecap="round" stroke-linejoin="round"/>
</g>
<defs>
<clipPath id="clip0_674_237">
<rect width="15.9926" height="15.9926" fill="white"/>
</clipPath>
</defs>
</svg>
