<svg preserveAspectRatio="none" width="100%" height="100%" overflow="visible" style="display: block;" viewBox="0 0 31.9853 31.9853" fill="none" xmlns="http://www.w3.org/2000/svg">
<g id="Icon">
<path id="Vector" d="M6.6636 6.66358C6.66346 6.19458 6.78707 5.73386 7.02195 5.32791C7.25683 4.92197 7.59465 4.58519 8.00132 4.35157C8.40799 4.11795 8.8691 3.99577 9.33809 3.99736C9.80708 3.99896 10.2674 4.12426 10.6724 4.36064L26.6611 13.687C27.0646 13.9211 27.3996 14.2571 27.6325 14.6612C27.8655 15.0654 27.9884 15.5236 27.9888 15.9901C27.9892 16.4566 27.8671 16.9151 27.6349 17.3197C27.4026 17.7242 27.0682 18.0607 26.6651 18.2956L10.6724 27.6246C10.2674 27.861 9.80708 27.9863 9.33809 27.9879C8.8691 27.9895 8.40799 27.8673 8.00132 27.6337C7.59465 27.4001 7.25683 27.0633 7.02195 26.6573C6.78707 26.2514 6.66346 25.7907 6.6636 25.3217V6.66358Z" stroke="var(--stroke-0, #9810FA)" stroke-width="2.66544" stroke-linecap="round" stroke-linejoin="round"/>
</g>
</svg>
