<svg preserveAspectRatio="none" width="100%" height="100%" overflow="visible" style="display: block;" viewBox="0 0 23.989 23.989" fill="none" xmlns="http://www.w3.org/2000/svg">
<g id="Icon">
<path id="Vector" d="M10.2633 20.9903C10.4387 21.2942 10.6911 21.5466 10.995 21.722C11.2989 21.8974 11.6436 21.9898 11.9945 21.9898C12.3454 21.9898 12.6901 21.8974 12.994 21.722C13.2979 21.5466 13.5502 21.2942 13.7257 20.9903" stroke="var(--stroke-0, white)" stroke-width="1.99908" stroke-linecap="round" stroke-linejoin="round"/>
<path id="Vector_2" d="M3.2605 15.319C3.12993 15.4621 3.04376 15.6401 3.01247 15.8312C2.98119 16.0224 3.00614 16.2186 3.08429 16.3959C3.16244 16.5731 3.29042 16.7239 3.45267 16.8297C3.61492 16.9356 3.80443 16.992 3.99816 16.9922H19.9908C20.1845 16.9923 20.3741 16.936 20.5364 16.8304C20.6988 16.7247 20.8269 16.5741 20.9053 16.397C20.9836 16.2198 21.0088 16.0237 20.9778 15.8325C20.9468 15.6413 20.8608 15.4632 20.7305 15.32C19.4011 13.9496 17.9917 12.4933 17.9917 7.99632C17.9917 6.40576 17.3599 4.88033 16.2352 3.75563C15.1105 2.63093 13.5851 1.99908 11.9945 1.99908C10.4039 1.99908 8.8785 2.63093 7.7538 3.75563C6.6291 4.88033 5.99724 6.40576 5.99724 7.99632C5.99724 12.4933 4.58689 13.9496 3.2605 15.319Z" stroke="var(--stroke-0, white)" stroke-width="1.99908" stroke-linecap="round" stroke-linejoin="round"/>
</g>
</svg>
