<svg preserveAspectRatio="none" width="100%" height="100%" overflow="visible" style="display: block;" viewBox="0 0 23.989 23.989" fill="none" xmlns="http://www.w3.org/2000/svg">
<g id="Icon">
<path id="Vector" d="M19.9908 12.994C19.9908 17.9917 16.4924 20.4906 12.3343 21.9399C12.1166 22.0137 11.8801 22.0102 11.6646 21.9299C7.49655 20.4906 3.99816 17.9917 3.99816 12.994V5.99726C3.99816 5.73217 4.10347 5.47793 4.29092 5.29048C4.47837 5.10303 4.73261 4.99772 4.9977 4.99772C6.99678 4.99772 9.49563 3.79828 11.2348 2.27897C11.4466 2.09806 11.716 1.99865 11.9945 1.99865C12.273 1.99865 12.5424 2.09806 12.7541 2.27897C14.5033 3.80827 16.9922 4.99772 18.9913 4.99772C19.2564 4.99772 19.5106 5.10303 19.698 5.29048C19.8855 5.47793 19.9908 5.73217 19.9908 5.99726V12.994Z" stroke="var(--stroke-0, white)" stroke-width="1.99908" stroke-linecap="round" stroke-linejoin="round"/>
</g>
</svg>
