<svg preserveAspectRatio="none" width="100%" height="100%" overflow="visible" style="display: block;" viewBox="0 0 23.989 23.989" fill="none" xmlns="http://www.w3.org/2000/svg">
<g id="Icon">
<path id="Vector" d="M12.994 21.9899H17.9917C18.5219 21.9899 19.0304 21.7793 19.4053 21.4044C19.7802 21.0295 19.9908 20.521 19.9908 19.9908V7.99633C19.9916 7.67959 19.9296 7.36582 19.8085 7.07315C19.6874 6.78047 19.5095 6.51468 19.2851 6.29111L15.6988 2.70476C15.4752 2.48039 15.2094 2.30251 14.9167 2.18139C14.6241 2.06027 14.3103 1.99831 13.9936 1.99909H5.99724C5.46705 1.99909 4.95858 2.2097 4.58368 2.58461C4.20878 2.95951 3.99816 3.46798 3.99816 3.99817V10.995" stroke="var(--stroke-0, #9810FA)" stroke-width="1.99908" stroke-linecap="round" stroke-linejoin="round"/>
<path id="Vector_2" d="M13.9936 1.99908V6.99678C13.9936 7.26188 14.0989 7.51611 14.2863 7.70356C14.4738 7.89101 14.728 7.99632 14.9931 7.99632H19.9908" stroke="var(--stroke-0, #9810FA)" stroke-width="1.99908" stroke-linecap="round" stroke-linejoin="round"/>
<path id="Vector_3" d="M3.61835 18.7913C3.40807 18.572 3.24438 18.3124 3.13717 18.0282C3.02996 17.744 2.98145 17.441 2.99455 17.1375C3.00766 16.834 3.08213 16.5363 3.21345 16.2623C3.34477 15.9884 3.53023 15.7439 3.75863 15.5436C3.98703 15.3433 4.25365 15.1914 4.54239 15.0969C4.83113 15.0025 5.136 14.9676 5.43862 14.9942C5.74123 15.0208 6.03532 15.1085 6.30312 15.2519C6.57092 15.3953 6.8069 15.5915 6.9968 15.8286C7.18762 15.594 7.4238 15.4002 7.69122 15.259C7.95864 15.1177 8.25181 15.0319 8.55318 15.0065C8.85455 14.9812 9.15793 15.0169 9.44519 15.1115C9.73244 15.2061 9.99766 15.3577 10.225 15.5572C10.4523 15.7567 10.6371 15.9999 10.7682 16.2725C10.8993 16.545 10.9741 16.8412 10.9882 17.1433C11.0022 17.4454 10.9551 17.7472 10.8498 18.0307C10.7445 18.3142 10.5831 18.5736 10.3752 18.7933L7.75045 21.6479C7.65663 21.7555 7.54088 21.8417 7.41097 21.9007C7.28106 21.9598 7.14001 21.9903 6.9973 21.9903C6.8546 21.9903 6.71355 21.9598 6.58364 21.9007C6.45373 21.8417 6.33797 21.7555 6.24415 21.6479L3.61835 18.7913Z" stroke="var(--stroke-0, #9810FA)" stroke-width="1.99908" stroke-linecap="round" stroke-linejoin="round"/>
</g>
</svg>
