<svg preserveAspectRatio="none" width="100%" height="100%" overflow="visible" style="display: block;" viewBox="0 0 22.5 22.4991" fill="none" xmlns="http://www.w3.org/2000/svg">
<g id="Live Chat">
<path id="Vector" d="M19.375 7.5H15V3.125C14.999 2.2965 14.6695 1.50221 14.0836 0.916369C13.4978 0.33053 12.7035 0.000975906 11.875 0H3.125C2.2965 0.000975906 1.50221 0.33053 0.916369 0.916369C0.33053 1.50221 0.000975906 2.2965 0 3.125V8.75C0.00094847 9.47008 0.250118 10.1678 0.705511 10.7256C1.1609 11.2834 1.79467 11.6671 2.5 11.8121V13.7823C2.50087 14.0274 2.57611 14.2665 2.71578 14.4679C2.85545 14.6693 3.05295 14.8235 3.28219 14.9103C3.43278 14.9698 3.59325 15.0005 3.75519 15.0006C3.92883 15.0007 4.10063 14.9649 4.25969 14.8952C4.41875 14.8255 4.56162 14.7236 4.67925 14.5959L7.19544 11.875H7.5V16.25C7.50098 17.0785 7.83053 17.8728 8.41637 18.4586C9.00221 19.0445 9.7965 19.374 10.625 19.375H15.3021L17.8222 22.0929C17.9402 22.2211 18.0835 22.3234 18.243 22.3933C18.4026 22.4632 18.5749 22.4993 18.7491 22.4991C18.9101 22.4988 19.0696 22.4686 19.2196 22.41C19.4487 22.323 19.6459 22.1684 19.7852 21.9669C19.9246 21.7654 19.9995 21.5263 20 21.2813V19.3125C20.7054 19.1675 21.3392 18.7837 21.7946 18.2258C22.25 17.668 22.4991 16.9701 22.5 16.25V10.625C22.499 9.7965 22.1695 9.00221 21.5836 8.41637C20.9978 7.83053 20.2035 7.50098 19.375 7.5V7.5ZM6.922 10.625C6.83577 10.625 6.75048 10.6428 6.67148 10.6774C6.59249 10.7119 6.5215 10.7625 6.463 10.8258L3.75 13.7824V11.25C3.75 11.0842 3.68415 10.9253 3.56694 10.8081C3.44973 10.6908 3.29076 10.625 3.125 10.625C2.62789 10.6245 2.15129 10.4267 1.79978 10.0752C1.44827 9.72371 1.25055 9.24711 1.25 8.75V3.125C1.25055 2.62789 1.44827 2.15129 1.79978 1.79978C2.15129 1.44827 2.62789 1.25055 3.125 1.25H11.875C12.3721 1.25055 12.8487 1.44827 13.2002 1.79978C13.5517 2.15129 13.7495 2.62789 13.75 3.125V8.75C13.7495 9.24711 13.5517 9.72371 13.2002 10.0752C12.8487 10.4267 12.3721 10.6245 11.875 10.625H6.922ZM21.25 16.25C21.2495 16.7471 21.0517 17.2237 20.7002 17.5752C20.3487 17.9267 19.8721 18.1245 19.375 18.125C19.2092 18.125 19.0503 18.1908 18.9331 18.3081C18.8158 18.4253 18.75 18.5842 18.75 18.75L18.7396 21.2438L16.0334 18.325C15.9748 18.2619 15.9039 18.2116 15.825 18.1772C15.7462 18.1428 15.6611 18.125 15.575 18.125H10.625C10.1279 18.1245 9.65129 17.9267 9.29978 17.5752C8.94827 17.2237 8.75055 16.7471 8.75 16.25V11.875H11.875C12.7035 11.874 13.4978 11.5445 14.0836 10.9586C14.6695 10.3728 14.999 9.5785 15 8.75H19.375C19.8721 8.75055 20.3487 8.94827 20.7002 9.29978C21.0517 9.65129 21.2495 10.1279 21.25 10.625V16.25Z" fill="var(--fill-0, white)"/>
</g>
</svg>
