<svg preserveAspectRatio="none" width="100%" height="100%" overflow="visible" style="display: block;" viewBox="0 0 31.9853 31.9853" fill="none" xmlns="http://www.w3.org/2000/svg">
<g id="Icon">
<path id="Vector" d="M18.4342 22.0805C18.7094 22.2069 19.0195 22.2358 19.3134 22.1624C19.6072 22.089 19.8673 21.9177 20.0508 21.6767L20.5239 21.057C20.7722 20.7259 21.0941 20.4573 21.4642 20.2722C21.8343 20.0872 22.2425 19.9908 22.6562 19.9908H26.6544C27.3613 19.9908 28.0393 20.2716 28.5392 20.7715C29.039 21.2714 29.3199 21.9493 29.3199 22.6562V26.6544C29.3199 27.3613 29.039 28.0393 28.5392 28.5392C28.0393 29.039 27.3613 29.3199 26.6544 29.3199C20.2921 29.3199 14.1905 26.7924 9.69165 22.2936C5.19284 17.7948 2.66544 11.6932 2.66544 5.33088C2.66544 4.62396 2.94626 3.946 3.44613 3.44613C3.946 2.94626 4.62396 2.66544 5.33088 2.66544H9.32904C10.036 2.66544 10.7139 2.94626 11.2138 3.44613C11.7137 3.946 11.9945 4.62396 11.9945 5.33088V9.32904C11.9945 9.74284 11.8981 10.151 11.7131 10.5211C11.528 10.8912 11.2593 11.2131 10.9283 11.4614L10.3046 11.9292C10.0599 12.116 9.88748 12.3818 9.81654 12.6813C9.7456 12.9809 9.78055 13.2957 9.91544 13.5724C11.7368 17.2719 14.7325 20.2637 18.4342 22.0805Z" stroke="var(--stroke-0, #155DFC)" stroke-width="2.66544" stroke-linecap="round" stroke-linejoin="round"/>
</g>
</svg>
