<svg preserveAspectRatio="none" width="100%" height="100%" overflow="visible" style="display: block;" viewBox="0 0 23.989 23.989" fill="none" xmlns="http://www.w3.org/2000/svg">
<g id="Icon">
<path id="Vector" d="M5.99724 21.9899C5.46705 21.9899 4.95858 21.7793 4.58368 21.4044C4.20878 21.0295 3.99816 20.521 3.99816 19.9908V3.99816C3.99816 3.46798 4.20878 2.9595 4.58368 2.5846C4.95858 2.2097 5.46705 1.99908 5.99724 1.99908H13.9936C14.31 1.99857 14.6234 2.06066 14.9157 2.18177C15.208 2.30288 15.4735 2.48062 15.6968 2.70476L19.2831 6.29111C19.5079 6.51451 19.6861 6.78023 19.8076 7.07291C19.929 7.36559 19.9913 7.67944 19.9908 7.99633V19.9908C19.9908 20.521 19.7802 21.0295 19.4053 21.4044C19.0304 21.7793 18.5219 21.9899 17.9917 21.9899H5.99724Z" stroke="var(--stroke-0, white)" stroke-width="1.99908" stroke-linecap="round" stroke-linejoin="round"/>
<path id="Vector_2" d="M13.9936 1.99908V6.99678C13.9936 7.26188 14.0989 7.51611 14.2863 7.70356C14.4738 7.89101 14.728 7.99632 14.9931 7.99632H19.9908" stroke="var(--stroke-0, white)" stroke-width="1.99908" stroke-linecap="round" stroke-linejoin="round"/>
<path id="Vector_3" d="M9.99632 8.99586H7.99632" stroke="var(--stroke-0, white)" stroke-width="1.99908" stroke-linecap="round" stroke-linejoin="round"/>
<path id="Vector_4" d="M15.9926 12.994H7.99632" stroke="var(--stroke-0, white)" stroke-width="1.99908" stroke-linecap="round" stroke-linejoin="round"/>
<path id="Vector_5" d="M15.9926 16.9922H7.99632" stroke="var(--stroke-0, white)" stroke-width="1.99908" stroke-linecap="round" stroke-linejoin="round"/>
</g>
</svg>
