<svg preserveAspectRatio="none" width="100%" height="100%" overflow="visible" style="display: block;" viewBox="0 0 31.9853 31.9853" fill="none" xmlns="http://www.w3.org/2000/svg">
<g id="Icon">
<path id="Vector" d="M6.6636 6.66374C6.66346 6.19475 6.78707 5.73402 7.02195 5.32808C7.25683 4.92213 7.59465 4.58535 8.00132 4.35173C8.40799 4.11812 8.8691 3.99593 9.33809 3.99753C9.80708 3.99912 10.2674 4.12443 10.6724 4.3608L26.6611 13.6872C27.0646 13.9213 27.3996 14.2572 27.6325 14.6614C27.8655 15.0656 27.9884 15.5238 27.9888 15.9903C27.9892 16.4568 27.8671 16.9153 27.6349 17.3198C27.4026 17.7244 27.0682 18.0609 26.6651 18.2957L10.6724 27.6248C10.2674 27.8611 9.80708 27.9865 9.33809 27.988C8.8691 27.9896 8.40799 27.8675 8.00132 27.6338C7.59465 27.4002 7.25683 27.0634 7.02195 26.6575C6.78707 26.2516 6.66346 25.7908 6.6636 25.3218V6.66374Z" stroke="var(--stroke-0, #155DFC)" stroke-width="2.66544" stroke-linecap="round" stroke-linejoin="round"/>
</g>
</svg>
