<svg preserveAspectRatio="none" width="100%" height="100%" overflow="visible" style="display: block;" viewBox="0 0 23.989 23.989" fill="none" xmlns="http://www.w3.org/2000/svg">
<g id="Icon">
<path id="Vector" d="M19.9908 12.994C19.9908 17.9917 16.4924 20.4905 12.3343 21.9399C12.1166 22.0137 11.8801 22.0101 11.6646 21.9299C7.49655 20.4905 3.99816 17.9917 3.99816 12.994V5.9972C3.99816 5.73211 4.10347 5.47787 4.29092 5.29042C4.47837 5.10297 4.73261 4.99766 4.9977 4.99766C6.99678 4.99766 9.49563 3.79821 11.2348 2.27891C11.4466 2.098 11.716 1.99859 11.9945 1.99859C12.273 1.99859 12.5424 2.098 12.7541 2.27891C14.5033 3.80821 16.9922 4.99766 18.9913 4.99766C19.2564 4.99766 19.5106 5.10297 19.698 5.29042C19.8855 5.47787 19.9908 5.73211 19.9908 5.9972V12.994Z" stroke="var(--stroke-0, white)" stroke-width="1.99908" stroke-linecap="round" stroke-linejoin="round"/>
</g>
</svg>
