<svg preserveAspectRatio="none" width="100%" height="100%" overflow="visible" style="display: block;" viewBox="0 0 23.989 23.989" fill="none" xmlns="http://www.w3.org/2000/svg">
<g id="Icon">
<path id="Vector" d="M15.9926 20.9903V18.9913C15.9926 17.9309 15.5714 16.9139 14.8216 16.1641C14.0718 15.4143 13.0549 14.9931 11.9945 14.9931H5.99724C4.93686 14.9931 3.91992 15.4143 3.17012 16.1641C2.42031 16.9139 1.99908 17.9309 1.99908 18.9913V20.9903" stroke="var(--stroke-0, white)" stroke-width="1.99908" stroke-linecap="round" stroke-linejoin="round"/>
<path id="Vector_2" d="M15.9926 3.12655C16.85 3.34882 17.6093 3.84948 18.1513 4.54996C18.6934 5.25044 18.9875 6.11107 18.9875 6.99677C18.9875 7.88248 18.6934 8.74311 18.1513 9.44359C17.6093 10.1441 16.85 10.6447 15.9926 10.867" stroke="var(--stroke-0, white)" stroke-width="1.99908" stroke-linecap="round" stroke-linejoin="round"/>
<path id="Vector_3" d="M21.9899 20.9904V18.9913C21.9892 18.1054 21.6944 17.2448 21.1516 16.5447C20.6089 15.8446 19.849 15.3445 18.9913 15.1231" stroke="var(--stroke-0, white)" stroke-width="1.99908" stroke-linecap="round" stroke-linejoin="round"/>
<path id="Vector_4" d="M8.99586 10.9949C11.204 10.9949 12.994 9.20491 12.994 6.99678C12.994 4.78866 11.204 2.99862 8.99586 2.99862C6.78774 2.99862 4.9977 4.78866 4.9977 6.99678C4.9977 9.20491 6.78774 10.9949 8.99586 10.9949Z" stroke="var(--stroke-0, white)" stroke-width="1.99908" stroke-linecap="round" stroke-linejoin="round"/>
</g>
</svg>
