<svg preserveAspectRatio="none" width="100%" height="100%" overflow="visible" style="display: block;" viewBox="0 0 20 20" fill="none" xmlns="http://www.w3.org/2000/svg">
<g id="Icon" clip-path="url(#clip0_668_146)">
<path id="Vector" d="M18.1675 8.33332C18.5481 10.2011 18.2768 12.1428 17.399 13.8348C16.5212 15.5268 15.0899 16.8667 13.3437 17.6311C11.5976 18.3955 9.64217 18.5381 7.80356 18.0353C5.96496 17.5324 4.35431 16.4145 3.24021 14.8678C2.12612 13.3212 1.57592 11.4394 1.68137 9.53614C1.78682 7.63294 2.54155 5.8234 3.81969 4.4093C5.09783 2.9952 6.82213 2.06202 8.70504 1.76537C10.5879 1.46872 12.5156 1.82654 14.1666 2.77916" stroke="var(--stroke-0, #155DFC)" stroke-width="1.66667" stroke-linecap="round" stroke-linejoin="round"/>
<path id="Vector_2" d="M7.5 9.16667L10 11.6667L18.3333 3.33333" stroke="var(--stroke-0, #155DFC)" stroke-width="1.66667" stroke-linecap="round" stroke-linejoin="round"/>
</g>
<defs>
<clipPath id="clip0_668_146">
<rect width="20" height="20" fill="white"/>
</clipPath>
</defs>
</svg>
