<svg preserveAspectRatio="none" width="100%" height="100%" overflow="visible" style="display: block;" viewBox="0 0 1287.88 417.806" fill="none" xmlns="http://www.w3.org/2000/svg">
<g id="Group 1000001021">
<path id="Vector 1" d="M0.299588 283.835C15.4171 283.835 130.31 413.846 282.35 413.846C493.563 413.846 607.285 -59.7716 904.761 72.6213C1140.59 177.58 1244.26 188.81 1287.45 115.814" stroke="var(--stroke-0, #E6F6FE)" stroke-width="1.00559"/>
<path id="Vector 3" d="M0.299588 171.533C13.6894 181.468 130.31 413.846 282.35 413.846C493.563 413.846 641.84 -7.93986 939.315 124.453C1175.15 229.412 1212.29 212.567 1287.45 159.008" stroke="var(--stroke-0, #E6F6FE)" stroke-width="1.00559"/>
<path id="Vector 2" d="M0.299588 352.945C15.4171 352.945 130.31 417.303 282.35 417.303C493.563 417.303 609.752 -137.07 887.483 32.8853C1090.06 156.849 1209.7 206.089 1287.45 150.37" stroke="var(--stroke-0, #E6F6FE)" stroke-width="1.00559"/>
</g>
</svg>
