<svg preserveAspectRatio="none" width="100%" height="100%" overflow="visible" style="display: block;" viewBox="0 0 2247.07 548.397" fill="none" xmlns="http://www.w3.org/2000/svg">
<g id="Group 1000001021">
<path id="Vector 1" d="M0.246466 372.612C26.6307 372.612 227.151 543.358 492.501 543.358C861.126 543.358 1059.6 -78.6533 1578.78 95.2209C1990.37 233.065 2171.29 247.814 2246.68 151.947" stroke="var(--stroke-0, #E6F6FE)" stroke-width="1.00559"/>
<path id="Vector 3" d="M0.245101 225.122C23.614 238.169 227.149 543.356 492.499 543.356C861.125 543.356 1119.91 -10.5833 1639.08 163.291C2050.68 301.135 2115.51 279.012 2246.67 208.672" stroke="var(--stroke-0, #E6F6FE)" stroke-width="1.00559"/>
<path id="Vector 2" d="M0.242997 463.372C26.6272 463.372 227.147 547.894 492.497 547.894C861.123 547.894 1063.9 -180.174 1548.62 43.0314C1902.17 205.836 2110.98 270.503 2246.67 197.327" stroke="var(--stroke-0, #E6F6FE)" stroke-width="1.00559"/>
</g>
</svg>
