<svg preserveAspectRatio="none" width="100%" height="100%" overflow="visible" style="display: block;" viewBox="0 0 120.028 6.08669" fill="none" xmlns="http://www.w3.org/2000/svg">
<g id="Group">
<path id="Vector" fill-rule="evenodd" clip-rule="evenodd" d="M2.76294 1.07962C5.30779 1.4385 11.9921 1.47381 30.1376 1.55705C58.4723 1.68487 80.9615 2.13175 87.2138 2.71174C87.7103 2.76588 47.994 3.04812 43.914 2.7556C37.5536 2.28097 7.18894 2.58797 1.08061 3.10003C-0.655803 3.23629 -0.0024473 3.73104 1.13012 3.83968C2.89882 4.02044 7.64445 4.01539 20.6562 4.01461C29.8063 4.02122 102.606 4.61888 110.565 5.36185C115.033 5.77865 117.749 6.1556 118.989 6.07084C120.028 6.00316 120.042 5.79191 119.141 5.20848C118.534 4.81951 119.216 4.59241 119.649 4.48791C120.316 4.3136 120.034 3.7142 119.195 3.23657C118.06 2.58209 116.106 2.59453 117.039 3.24848C117.241 3.38987 117.289 3.74215 116.575 3.66983C114.496 3.45304 99.8038 1.97033 95.8171 1.71328C53.2503 -1.07573 11.7256 0.768795 2.92956 0.0940355C-0.188689 -0.160723 1.24224 0.864302 2.76294 1.07962Z" fill="var(--fill-0, #25B4F8)"/>
</g>
</svg>
