<svg preserveAspectRatio="none" width="100%" height="100%" overflow="visible" style="display: block;" viewBox="0 0 14.218 17.0578" fill="none" xmlns="http://www.w3.org/2000/svg">
<g id="Shield Done">
<g id="Group 3">
<mask id="mask0_649_683" style="mask-type:luminance" maskUnits="userSpaceOnUse" x="0" y="0" width="15" height="18">
<path id="Clip 2" fill-rule="evenodd" clip-rule="evenodd" d="M0 0H14.218V17.0578H0V0Z" fill="var(--fill-0, white)"/>
</mask>
<g mask="url(#mask0_649_683)">
<path id="Fill 1" fill-rule="evenodd" clip-rule="evenodd" d="M7.10901 1.25698C6.39839 1.25698 1.91515 2.83575 1.39811 3.26732C1.2456 3.42067 1.23973 3.68715 1.27241 5.47123C1.2875 6.33101 1.30845 7.49916 1.30845 9.11648C1.30845 13.4749 6.10342 15.4098 7.10817 15.7659C8.11208 15.4081 12.9096 13.4623 12.9096 9.11648C12.9096 7.49749 12.9305 6.32849 12.9464 5.46872C12.9783 3.68631 12.9724 3.41983 12.8107 3.25894C12.3037 2.83575 7.81962 1.25698 7.10901 1.25698M7.10901 17.0581C7.04783 17.0581 6.98666 17.0497 6.92716 17.0313C6.64644 16.9466 0.0514647 14.8835 0.0514647 9.11648C0.0514647 7.51006 0.030515 6.34777 0.0154312 5.49469C-0.0231163 3.36369 -0.0314962 2.91955 0.519062 2.36983C1.17688 1.71034 6.15873 0 7.10901 0C8.05845 0 13.0403 1.71034 13.6998 2.36983C14.2495 2.91955 14.2411 3.36369 14.2026 5.49218C14.1875 6.34525 14.1665 7.50754 14.1665 9.11648C14.1665 14.8835 7.57158 16.9466 7.29085 17.0313C7.23135 17.0497 7.17018 17.0581 7.10901 17.0581" fill="var(--fill-0, #1376F8)"/>
</g>
</g>
<path id="Fill 4" fill-rule="evenodd" clip-rule="evenodd" d="M6.51694 10.4917V10.4917C6.35018 10.4917 6.19013 10.4255 6.07197 10.3073L4.4865 8.72016C4.2418 8.47463 4.2418 8.07575 4.48733 7.83106C4.73203 7.58553 5.13091 7.58553 5.37644 7.83106L6.51694 8.97324L9.33929 6.15089C9.58482 5.90536 9.98203 5.90536 10.2276 6.15089C10.4731 6.39642 10.4731 6.79447 10.2276 7.04L6.96108 10.3073C6.84376 10.4255 6.6837 10.4917 6.51694 10.4917" fill="var(--fill-0, #1376F8)"/>
</g>
</svg>
