<svg preserveAspectRatio="none" width="100%" height="100%" overflow="visible" style="display: block;" viewBox="0 0 120.028 6.08669" fill="none" xmlns="http://www.w3.org/2000/svg">
<g id="Group">
<path id="Vector" fill-rule="evenodd" clip-rule="evenodd" d="M2.76286 1.07959C5.30771 1.43848 11.9921 1.47378 30.1375 1.55702C58.4722 1.68484 80.9615 2.13173 87.2138 2.71172C87.7102 2.76585 47.9939 3.0481 43.9139 2.75558C37.5535 2.28095 7.18886 2.58795 1.08053 3.1C-0.655884 3.23627 -0.00252834 3.73101 1.13004 3.83965C2.89874 4.02041 7.64437 4.01536 20.6561 4.01458C29.8062 4.02119 102.606 4.61885 110.565 5.36183C115.033 5.77863 117.748 6.15557 118.989 6.07082C120.028 6.00314 120.042 5.79189 119.14 5.20845C118.534 4.81948 119.216 4.59239 119.649 4.48789C120.316 4.31358 120.034 3.71417 119.195 3.23655C118.06 2.58207 116.106 2.5945 117.039 3.24845C117.241 3.38985 117.289 3.74212 116.575 3.6698C114.496 3.45301 99.8037 1.97031 95.817 1.71325C53.2502 -1.07576 11.7256 0.76877 2.92948 0.0940102C-0.18877 -0.160748 1.24216 0.864277 2.76286 1.07959Z" fill="var(--fill-0, #25B4F8)"/>
</g>
</svg>
