<svg preserveAspectRatio="none" width="100%" height="100%" overflow="visible" style="display: block;" viewBox="0 0 23.989 23.989" fill="none" xmlns="http://www.w3.org/2000/svg">
<g id="Icon">
<path id="Vector" d="M9.9954 14.9931H5.99724C4.93686 14.9931 3.91992 15.4143 3.17012 16.1641C2.42031 16.9139 1.99908 17.9309 1.99908 18.9913V20.9903" stroke="var(--stroke-0, white)" stroke-width="1.99908" stroke-linecap="round" stroke-linejoin="round"/>
<path id="Vector_2" d="M14.2984 16.5225L15.2214 16.1405" stroke="var(--stroke-0, white)" stroke-width="1.99908" stroke-linecap="round" stroke-linejoin="round"/>
<path id="Vector_3" d="M15.2214 13.8458L14.2984 13.4628" stroke="var(--stroke-0, white)" stroke-width="1.99908" stroke-linecap="round" stroke-linejoin="round"/>
<path id="Vector_4" d="M16.8444 12.2229L16.4614 11.2999" stroke="var(--stroke-0, white)" stroke-width="1.99908" stroke-linecap="round" stroke-linejoin="round"/>
<path id="Vector_5" d="M16.8444 17.7638L16.4614 18.6878" stroke="var(--stroke-0, white)" stroke-width="1.99908" stroke-linecap="round" stroke-linejoin="round"/>
<path id="Vector_6" d="M19.1392 12.2229L19.5222 11.2999" stroke="var(--stroke-0, white)" stroke-width="1.99908" stroke-linecap="round" stroke-linejoin="round"/>
<path id="Vector_7" d="M19.5212 18.6878L19.1392 17.7638" stroke="var(--stroke-0, white)" stroke-width="1.99908" stroke-linecap="round" stroke-linejoin="round"/>
<path id="Vector_8" d="M20.7625 13.8458L21.6865 13.4628" stroke="var(--stroke-0, white)" stroke-width="1.99908" stroke-linecap="round" stroke-linejoin="round"/>
<path id="Vector_9" d="M20.7625 16.1405L21.6865 16.5235" stroke="var(--stroke-0, white)" stroke-width="1.99908" stroke-linecap="round" stroke-linejoin="round"/>
<path id="Vector_10" d="M17.9917 17.9917C19.6478 17.9917 20.9903 16.6492 20.9903 14.9931C20.9903 13.337 19.6478 11.9945 17.9917 11.9945C16.3356 11.9945 14.9931 13.337 14.9931 14.9931C14.9931 16.6492 16.3356 17.9917 17.9917 17.9917Z" stroke="var(--stroke-0, white)" stroke-width="1.99908" stroke-linecap="round" stroke-linejoin="round"/>
<path id="Vector_11" d="M8.99586 10.9949C11.204 10.9949 12.994 9.20491 12.994 6.99678C12.994 4.78866 11.204 2.99862 8.99586 2.99862C6.78774 2.99862 4.9977 4.78866 4.9977 6.99678C4.9977 9.20491 6.78774 10.9949 8.99586 10.9949Z" stroke="var(--stroke-0, white)" stroke-width="1.99908" stroke-linecap="round" stroke-linejoin="round"/>
</g>
</svg>
